<svg class="custom-logo style-svg replaced-svg svg-replaced-0" viewBox="0 0 155.9 38.89" id="uuid-ab14a5b7-22d6-45f4-bb7c-d370acfbe1f1" xmlns:xlink="http://www.w3.org/1999/xlink" xmlns="http://www.w3.org/2000/svg">
  <defs>
    <linearGradient gradientUnits="userSpaceOnUse" y2="25.96" x2="162.65" y1="35.38" x1="-1.08" id="uuid-62549c80-9aff-47b4-89f2-8cc6eb4e6abd">
      <stop stop-color="#009cff" offset="0"></stop>
      <stop stop-color="#4ec6ff" offset=".26"></stop>
      <stop stop-color="#00e8f4" offset=".58"></stop>
      <stop stop-color="#3acf8e" offset="1"></stop>
    </linearGradient>
    <linearGradient xlink:href="#uuid-62549c80-9aff-47b4-89f2-8cc6eb4e6abd" y2="26.73" x2="162.69" y1="36.15" x1="-1.04" id="uuid-2294e99a-f6f8-4161-9296-59c699ed4319"></linearGradient>
    <linearGradient xlink:href="#uuid-62549c80-9aff-47b4-89f2-8cc6eb4e6abd" y2="26.55" x2="162.68" y1="35.97" x1="-1.05" id="uuid-bec6082b-9c49-43d9-b896-28de296c2644"></linearGradient>
    <linearGradient xlink:href="#uuid-62549c80-9aff-47b4-89f2-8cc6eb4e6abd" y2="27.09" x2="162.71" y1="36.51" x1="-1.02" id="uuid-26f2c66c-f531-4a56-ab5d-7dc624f904d0"></linearGradient>
    <linearGradient xlink:href="#uuid-62549c80-9aff-47b4-89f2-8cc6eb4e6abd" y2="27.34" x2="162.73" y1="36.76" x1="-1.01" id="uuid-2734e137-73a4-4ff7-ad09-761599f8176d"></linearGradient>
    <linearGradient xlink:href="#uuid-62549c80-9aff-47b4-89f2-8cc6eb4e6abd" y2="27.28" x2="162.72" y1="36.7" x1="-1.01" id="uuid-eb336608-89df-457b-854e-4a804e4f1eed"></linearGradient>
    <linearGradient xlink:href="#uuid-62549c80-9aff-47b4-89f2-8cc6eb4e6abd" y2="27.82" x2="162.75" y1="37.24" x1="-.98" id="uuid-f1924407-99e4-444c-8ef9-622ab2a94a4d"></linearGradient>
    <linearGradient xlink:href="#uuid-62549c80-9aff-47b4-89f2-8cc6eb4e6abd" y2="28.09" x2="162.77" y1="37.51" x1="-.96" id="uuid-ce9fb4ee-c8e5-4749-a5d6-9256e0d70e79"></linearGradient>
    <linearGradient xlink:href="#uuid-62549c80-9aff-47b4-89f2-8cc6eb4e6abd" y2="28.34" x2="162.78" y1="37.76" x1="-.95" id="uuid-52428162-3b81-4862-9a08-0f76dd4c0511"></linearGradient>
    <linearGradient xlink:href="#uuid-62549c80-9aff-47b4-89f2-8cc6eb4e6abd" y2="28.58" x2="162.8" y1="38" x1="-.93" id="uuid-47985b04-8b2e-4cae-ad83-8dc872c37cb6"></linearGradient>
    <linearGradient xlink:href="#uuid-62549c80-9aff-47b4-89f2-8cc6eb4e6abd" y2="26.18" x2="162.66" y1="35.6" x1="-1.07" id="uuid-e0707fa1-80ba-46da-a927-2c9dae88f6e4"></linearGradient>
    <linearGradient xlink:href="#uuid-62549c80-9aff-47b4-89f2-8cc6eb4e6abd" y2="28.76" x2="162.81" y1="38.18" x1="-.92" id="uuid-b5fc40e3-8c70-4de5-8ef1-3e1acb9cb622"></linearGradient>
    <linearGradient xlink:href="#uuid-62549c80-9aff-47b4-89f2-8cc6eb4e6abd" y2="28.51" x2="162.79" y1="37.93" x1="-.94" id="uuid-1928c690-8975-4b7c-a3ff-59ed2c764472"></linearGradient>
    <linearGradient xlink:href="#uuid-62549c80-9aff-47b4-89f2-8cc6eb4e6abd" y2="26.48" x2="162.68" y1="35.91" x1="-1.05" id="uuid-9f5a54d1-c339-49f5-93c9-283b351dbcc6"></linearGradient>
    <linearGradient xlink:href="#uuid-62549c80-9aff-47b4-89f2-8cc6eb4e6abd" y2="29.06" x2="162.83" y1="38.48" x1="-.91" id="uuid-1b721bb4-ac2c-4247-8cb9-bd26c402582e"></linearGradient>
    <linearGradient xlink:href="#uuid-62549c80-9aff-47b4-89f2-8cc6eb4e6abd" y2="29.25" x2="162.84" y1="38.67" x1="-.9" id="uuid-d07605e2-00d7-40ff-9212-dc07f2c7a7c0"></linearGradient>
    <linearGradient xlink:href="#uuid-62549c80-9aff-47b4-89f2-8cc6eb4e6abd" y2="29.52" x2="162.85" y1="38.94" x1="-.88" id="uuid-6721aecf-d974-4cce-9a94-693399107754"></linearGradient>
    <linearGradient xlink:href="#uuid-62549c80-9aff-47b4-89f2-8cc6eb4e6abd" y2="29.85" x2="162.87" y1="39.28" x1="-.86" id="uuid-7c301a46-2159-4cd4-bea3-777a86d324fb"></linearGradient>
    <linearGradient xlink:href="#uuid-62549c80-9aff-47b4-89f2-8cc6eb4e6abd" y2="30.14" x2="162.89" y1="39.56" x1="-.84" id="uuid-1b5579ca-390b-4ecd-82e8-077d4a349c22"></linearGradient>
    <linearGradient xlink:href="#uuid-62549c80-9aff-47b4-89f2-8cc6eb4e6abd" y2="30.33" x2="162.9" y1="39.75" x1="-.83" id="uuid-42437e5c-a1ae-49c7-b818-82baf548a8e6"></linearGradient>
    <linearGradient xlink:href="#uuid-62549c80-9aff-47b4-89f2-8cc6eb4e6abd" y2="30.56" x2="162.91" y1="39.98" x1="-.82" id="uuid-0a9aee56-4995-4fb1-bc0d-4b923f28a905"></linearGradient>
    <linearGradient xlink:href="#uuid-62549c80-9aff-47b4-89f2-8cc6eb4e6abd" y2="30.29" x2="162.9" y1="39.71" x1="-.84" id="uuid-58e2ead4-41e8-4ab5-8041-38c57774b7f2"></linearGradient>
    <linearGradient xlink:href="#uuid-62549c80-9aff-47b4-89f2-8cc6eb4e6abd" y2="31.07" x2="162.94" y1="40.49" x1="-.79" id="uuid-ec743e36-2429-49ba-8320-09b5d094de75"></linearGradient>
    <linearGradient xlink:href="#uuid-62549c80-9aff-47b4-89f2-8cc6eb4e6abd" y2="31.51" x2="162.97" y1="40.93" x1="-.77" id="uuid-745e666a-28c4-4cdb-adb7-e2469565c400"></linearGradient>
    <linearGradient xlink:href="#uuid-62549c80-9aff-47b4-89f2-8cc6eb4e6abd" y2="31.83" x2="162.98" y1="41.25" x1="-.75" id="uuid-5d1c0ed2-6f89-4c01-aa7b-7df4fb0693ad"></linearGradient>
    <linearGradient xlink:href="#uuid-62549c80-9aff-47b4-89f2-8cc6eb4e6abd" y2="31.53" x2="162.97" y1="40.95" x1="-.76" id="uuid-ebff19ff-146a-4c09-a293-7e4f47b3292f"></linearGradient>
    <linearGradient xlink:href="#uuid-62549c80-9aff-47b4-89f2-8cc6eb4e6abd" y2="32.3" x2="163.01" y1="41.72" x1="-.72" id="uuid-6297304a-0983-4c9d-8451-5fcc1af9ff1e"></linearGradient>
    <linearGradient xlink:href="#uuid-62549c80-9aff-47b4-89f2-8cc6eb4e6abd" y2="29.73" x2="162.86" y1="39.15" x1="-.87" id="uuid-943ff655-23e1-452d-a13d-0876298dba6e"></linearGradient>
    <linearGradient xlink:href="#uuid-62549c80-9aff-47b4-89f2-8cc6eb4e6abd" y2="31.87" x2="162.99" y1="41.29" x1="-.74" id="uuid-72e1cb3f-d35f-4ec5-bfab-7269f7c2219a"></linearGradient>
    <linearGradient xlink:href="#uuid-62549c80-9aff-47b4-89f2-8cc6eb4e6abd" y2="32.56" x2="163.03" y1="41.98" x1="-.71" id="uuid-1ea181ed-3db9-430c-ac82-c1f218cf073b"></linearGradient>
    <linearGradient xlink:href="#uuid-62549c80-9aff-47b4-89f2-8cc6eb4e6abd" y2="29.98" x2="162.88" y1="39.4" x1="-.85" id="uuid-cf85d1f4-6fbd-45e8-a5c4-296db96a69cf"></linearGradient>
    <linearGradient xlink:href="#uuid-62549c80-9aff-47b4-89f2-8cc6eb4e6abd" y2="32.31" x2="163.01" y1="41.73" x1="-.72" id="uuid-568a9570-792b-40c5-ac83-ddf0714e6523"></linearGradient>
    <linearGradient xlink:href="#uuid-62549c80-9aff-47b4-89f2-8cc6eb4e6abd" y2="30.46" x2="162.91" y1="39.88" x1="-.83" id="uuid-3a5dbc1e-6408-49b7-b399-caff0dbf1cb5"></linearGradient>
    <linearGradient xlink:href="#uuid-62549c80-9aff-47b4-89f2-8cc6eb4e6abd" y2="32.92" x2="163.05" y1="42.34" x1="-.68" id="uuid-283034b2-d157-425d-8992-c40689f974df"></linearGradient>
    <linearGradient xlink:href="#uuid-62549c80-9aff-47b4-89f2-8cc6eb4e6abd" y2="30.84" x2="162.93" y1="40.26" x1="-.8" id="uuid-be5f71e1-ecf3-40f7-99a2-5a2277c647d4"></linearGradient>
    <linearGradient xlink:href="#uuid-62549c80-9aff-47b4-89f2-8cc6eb4e6abd" y2="33.3" x2="163.07" y1="42.72" x1="-.66" id="uuid-8bf03c1e-f815-409c-823e-a78186a0c1a6"></linearGradient>
    <linearGradient xlink:href="#uuid-62549c80-9aff-47b4-89f2-8cc6eb4e6abd" y2="32.93" x2="163.05" y1="42.35" x1="-.68" id="uuid-989f26d3-7bd7-4679-87f4-31ff34d5675f"></linearGradient>
    <linearGradient xlink:href="#uuid-62549c80-9aff-47b4-89f2-8cc6eb4e6abd" y2="33.68" x2="163.09" y1="43.1" x1="-.64" id="uuid-1dabf329-0107-49ce-af19-65d00ad1f461"></linearGradient>
    <linearGradient xlink:href="#uuid-62549c80-9aff-47b4-89f2-8cc6eb4e6abd" y2="33.93" x2="163.11" y1="43.35" x1="-.63" id="uuid-b7f2e875-12c1-43e3-baa3-5615c33a48df"></linearGradient>
    <linearGradient xlink:href="#uuid-62549c80-9aff-47b4-89f2-8cc6eb4e6abd" y2="33.75" x2="163.1" y1="43.17" x1="-.64" id="uuid-2fd93768-99a1-4c5b-9e69-85a1ccbee329"></linearGradient>
    <linearGradient xlink:href="#uuid-62549c80-9aff-47b4-89f2-8cc6eb4e6abd" y2="34.29" x2="163.13" y1="43.72" x1="-.61" id="uuid-671a99a1-2e47-4f67-83e9-d620f6991c28"></linearGradient>
    <linearGradient xlink:href="#uuid-62549c80-9aff-47b4-89f2-8cc6eb4e6abd" y2="34.47" x2="163.14" y1="43.89" x1="-.59" id="uuid-e1a196c7-bab2-4b04-a58c-c3238cc3bef9"></linearGradient>
    <linearGradient xlink:href="#uuid-62549c80-9aff-47b4-89f2-8cc6eb4e6abd" y2="31.9" x2="162.99" y1="41.32" x1="-.74" id="uuid-8b0361ff-9f24-4c9e-9b93-be003a3cac67"></linearGradient>
    <linearGradient xlink:href="#uuid-62549c80-9aff-47b4-89f2-8cc6eb4e6abd" y2="35.46" x2="163.19" y1="44.89" x1="-.54" id="uuid-1739f95f-0c48-4b1c-9b94-c714b17fbbea"></linearGradient>
    <linearGradient xlink:href="#uuid-62549c80-9aff-47b4-89f2-8cc6eb4e6abd" y2="34.94" x2="163.16" y1="44.36" x1="-.57" id="uuid-72faeabf-99d0-4205-95af-28487fc454ac"></linearGradient>
    <linearGradient xlink:href="#uuid-62549c80-9aff-47b4-89f2-8cc6eb4e6abd" y2="35.2" x2="163.18" y1="44.62" x1="-.55" id="uuid-6044ccb1-18b5-4f4c-a2c5-3b55393ea258"></linearGradient>
    <linearGradient xlink:href="#uuid-62549c80-9aff-47b4-89f2-8cc6eb4e6abd" y2="-9.58" x2="152.14" y1="15.17" x1="-5.27" id="uuid-9a5ad5be-f211-455b-9db3-4ee3f9719c7e"></linearGradient>
    <linearGradient xlink:href="#uuid-62549c80-9aff-47b4-89f2-8cc6eb4e6abd" y2="-1.54" x2="153.4" y1="23.21" x1="-4" id="uuid-414b287a-6f9a-41c6-a849-4a1a7758683a"></linearGradient>
    <linearGradient xlink:href="#uuid-62549c80-9aff-47b4-89f2-8cc6eb4e6abd" y2="15.22" x2="156.04" y1="39.98" x1="-1.37" id="uuid-2340f136-3176-4a38-9776-40091db4e07d"></linearGradient>
    <linearGradient xlink:href="#uuid-62549c80-9aff-47b4-89f2-8cc6eb4e6abd" y2="4.79" x2="154.4" y1="29.55" x1="-3.01" id="uuid-ece7d7cf-e5ec-4262-aeb7-380852cb1f5e"></linearGradient>
    <linearGradient xlink:href="#uuid-62549c80-9aff-47b4-89f2-8cc6eb4e6abd" y2="5.35" x2="154.49" y1="30.11" x1="-2.92" id="uuid-394c3013-315b-4b4b-b5cb-f13687960104"></linearGradient>
    <linearGradient xlink:href="#uuid-62549c80-9aff-47b4-89f2-8cc6eb4e6abd" y2="5.25" x2="154.47" y1="30.01" x1="-2.93" id="uuid-1968dbc7-e9e7-440d-ad56-c7a56866d7d3"></linearGradient>
    <linearGradient xlink:href="#uuid-62549c80-9aff-47b4-89f2-8cc6eb4e6abd" y2="5.25" x2="154.47" y1="30.01" x1="-2.94" id="uuid-29f3a6ea-1134-480f-a1e4-6a118da884e3"></linearGradient>
    <linearGradient xlink:href="#uuid-62549c80-9aff-47b4-89f2-8cc6eb4e6abd" y2="12.24" x2="155.57" y1="37" x1="-1.83" id="uuid-52723125-0807-483a-b318-fec283e8b166"></linearGradient>
  </defs>
  <path style="fill:none;" d="m128.3,34.68c-.14-.07-.29-.1-.46-.1-.26,0-.48.08-.66.24-.18.16-.27.4-.29.72h1.85c0-.21-.03-.39-.11-.54s-.19-.25-.33-.32Z"></path>
  <path style="fill:none;" d="m121.64,34.68c-.14-.07-.29-.1-.46-.1-.26,0-.49.08-.66.24-.18.16-.27.4-.29.72h1.85c0-.21-.03-.39-.11-.54-.08-.14-.19-.25-.33-.32Z"></path>
  <path style="fill:none;" d="m17.69,34.68c-.14-.07-.29-.1-.46-.1-.26,0-.49.08-.66.24-.18.16-.27.4-.29.72h1.85c0-.21-.03-.39-.11-.54-.08-.14-.19-.25-.33-.32Z"></path>
  <path style="fill:none;" d="m51.13,34.74c-.15-.08-.31-.12-.48-.12s-.33.04-.48.12c-.15.08-.26.2-.35.36-.09.16-.13.36-.13.6s.04.44.13.6.21.28.35.36c.15.08.31.12.48.12s.33-.04.48-.12c.15-.08.26-.2.35-.36s.13-.36.13-.6-.04-.44-.13-.6c-.09-.16-.21-.29-.35-.36Z"></path>
  <path style="fill:none;" d="m66.57,34.68c-.14-.07-.29-.1-.46-.1-.26,0-.49.08-.66.24-.18.16-.27.4-.29.72h1.85c0-.21-.03-.39-.11-.54-.08-.14-.19-.25-.33-.32Z"></path>
  <path style="fill:none;" d="m96.14,34.74c-.15-.08-.31-.12-.48-.12s-.33.04-.48.12c-.15.08-.26.2-.35.36-.09.16-.13.36-.13.6s.04.44.13.6.21.28.35.36c.15.08.31.12.48.12s.33-.04.48-.12c.15-.08.26-.2.35-.36s.13-.36.13-.6-.04-.44-.13-.6c-.09-.16-.21-.29-.35-.36Z"></path>
  <path style="fill:none;" d="m82.45,34.76c-.15-.09-.32-.13-.51-.13-.3,0-.54.1-.72.29-.18.19-.27.45-.27.79s.09.6.27.79c.18.19.42.29.72.29.19,0,.36-.04.51-.13.15-.09.27-.21.35-.38.09-.16.13-.35.13-.57s-.04-.4-.13-.56c-.09-.16-.21-.29-.35-.38Z"></path>
  <path style="fill:none;" d="m115.08,34.68c-.14-.07-.29-.1-.46-.1-.26,0-.49.08-.66.24-.18.16-.27.4-.29.72h1.85c0-.21-.03-.39-.11-.54-.08-.14-.19-.25-.33-.32Z"></path>
  <path style="fill:none;" d="m100.38,34.63c-.19,0-.36.04-.51.13-.15.09-.27.21-.35.38-.09.16-.13.35-.13.56s.04.41.13.57c.09.16.2.29.35.38.15.09.32.13.51.13.3,0,.54-.1.72-.29.18-.19.27-.45.27-.79s-.09-.59-.27-.79c-.18-.19-.42-.29-.72-.29Z"></path>
  <path style="fill:none;" d="m30.48,34.76c-.15-.09-.32-.13-.51-.13-.3,0-.54.1-.72.29-.18.19-.27.45-.27.79s.09.6.27.79c.18.19.42.29.72.29.19,0,.36-.04.51-.13.15-.09.27-.21.35-.38.09-.16.13-.35.13-.57s-.04-.4-.13-.56c-.09-.16-.21-.29-.35-.38Z"></path>
  <path style="fill:none;" d="m7.09,34.74c-.15-.08-.31-.12-.48-.12s-.33.04-.48.12c-.15.08-.26.2-.35.36-.09.16-.13.36-.13.6s.04.44.13.6c.09.16.21.28.35.36.15.08.31.12.48.12s.33-.04.48-.12c.15-.08.26-.2.35-.36.09-.16.13-.36.13-.6s-.04-.44-.13-.6c-.09-.16-.21-.29-.35-.36Z"></path>
  <path style="fill:none;" d="m145.59,34.76c-.15-.08-.32-.13-.5-.13-.29,0-.52.1-.71.29-.19.19-.28.46-.28.8s.09.6.28.79c.18.19.42.28.71.28.18,0,.35-.04.5-.13.15-.08.27-.21.36-.37.09-.16.14-.35.14-.58s-.05-.41-.14-.57c-.09-.16-.21-.29-.36-.37Z"></path>
  <path style="fill:none;" d="m154.78,34.68c-.14-.07-.29-.1-.46-.1-.26,0-.49.08-.66.24-.18.16-.27.4-.29.72h1.85c0-.21-.03-.39-.11-.54-.08-.14-.19-.25-.33-.32Z"></path>
  <polygon style="fill:url(#uuid-62549c80-9aff-47b4-89f2-8cc6eb4e6abd);" points="1.93 36.61 .73 33.16 0 33.16 1.5 37.34 2.37 37.34 3.87 33.16 3.14 33.16 1.93 36.61"></polygon>
  <path style="fill:url(#uuid-2294e99a-f6f8-4161-9296-59c699ed4319);" d="m7.46,34.24c-.25-.13-.54-.2-.85-.2s-.6.07-.85.2c-.25.13-.45.33-.59.58-.14.25-.22.55-.22.89s.07.64.22.89c.14.25.34.45.59.58.25.13.53.2.85.2s.6-.07.85-.2c.25-.13.45-.33.59-.58.14-.25.21-.55.21-.89s-.07-.63-.21-.89c-.14-.25-.34-.45-.59-.58Zm-.02,2.07c-.09.16-.21.28-.35.36-.15.08-.31.12-.48.12s-.33-.04-.48-.12c-.15-.08-.26-.2-.35-.36-.09-.16-.13-.36-.13-.6s.04-.44.13-.6c.09-.16.21-.29.35-.36.15-.08.31-.12.48-.12s.33.04.48.12c.15.08.26.2.35.36.09.16.13.36.13.6s-.04.44-.13.6Z"></path>
  <path style="fill:url(#uuid-bec6082b-9c49-43d9-b896-28de296c2644);" d="m10.61,36.64c-.07-.07-.1-.2-.1-.38v-1.61h.79v-.57h-.79v-.81h-.68v.81h-.47v.57h.47v1.6c0,.39.09.67.27.84s.44.25.79.25h.41v-.59h-.33c-.17,0-.29-.04-.36-.11Z"></path>
  <path style="fill:url(#uuid-26f2c66c-f531-4a56-ab5d-7dc624f904d0);" d="m13.36,34.72v-.64h-.67v3.26h.67v-1.65c0-.33.09-.57.27-.71.18-.14.42-.22.71-.22h.2v-.73c-.27,0-.5.06-.71.19-.21.12-.36.29-.47.51Z"></path>
  <path style="fill:url(#uuid-2734e137-73a4-4ff7-ad09-761599f8176d);" d="m18.07,34.23c-.24-.13-.52-.2-.84-.2s-.59.07-.84.2c-.24.13-.43.33-.57.58-.14.25-.21.55-.21.89s.07.64.21.89c.14.25.33.45.57.58.24.13.52.2.84.2.27,0,.52-.05.74-.15.22-.1.4-.24.54-.42.14-.18.23-.38.27-.61h-.72c-.04.19-.13.34-.29.46-.16.11-.35.17-.57.17-.26,0-.47-.08-.64-.24-.17-.16-.27-.41-.28-.75h2.51c.02-.08.02-.18.02-.29,0-.28-.06-.54-.19-.77-.13-.23-.31-.41-.55-.54Zm-1.79,1.3c.02-.32.11-.55.29-.72.18-.16.4-.24.66-.24.17,0,.32.03.46.1.14.07.25.18.33.32.08.14.12.32.11.54h-1.85Z"></path>
  <path style="fill:url(#uuid-eb336608-89df-457b-854e-4a804e4f1eed);" d="m23.29,36.64c-.07-.07-.1-.2-.1-.38v-1.61h.79v-.57h-.79v-.81h-.68v.81h-.47v.57h.47v1.6c0,.39.09.67.27.84.18.17.44.25.79.25h.41v-.59h-.33c-.17,0-.29-.04-.36-.11Z"></path>
  <path style="fill:url(#uuid-f1924407-99e4-444c-8ef9-622ab2a94a4d);" d="m26.03,34.72v-.64h-.67v3.26h.67v-1.65c0-.33.09-.57.27-.71.18-.14.42-.22.71-.22h.2v-.73c-.27,0-.5.06-.71.19-.21.12-.36.29-.47.51Z"></path>
  <path style="fill:url(#uuid-ce9fb4ee-c8e5-4749-a5d6-9256e0d70e79);" d="m30.97,34.83c-.09-.24-.23-.43-.44-.58-.21-.15-.46-.22-.76-.22s-.54.07-.76.2c-.22.13-.4.33-.52.58-.13.25-.19.55-.19.89s.06.64.19.89c.13.25.3.45.52.58.22.13.48.2.76.2s.55-.07.76-.22c.21-.15.36-.34.44-.58v.76h.67v-3.26h-.67v.76Zm-.13,1.44c-.09.16-.21.29-.35.38-.15.09-.32.13-.51.13-.3,0-.54-.1-.72-.29-.18-.19-.27-.45-.27-.79s.09-.6.27-.79c.18-.19.42-.29.72-.29.19,0,.36.04.51.13.15.09.27.21.35.38.09.16.13.35.13.56s-.04.41-.13.57Z"></path>
  <path style="fill:url(#uuid-52428162-3b81-4862-9a08-0f76dd4c0511);" d="m35.02,34.02c-.27,0-.5.07-.71.2-.2.13-.35.32-.44.57v-.72h-.67v3.26h.67v-1.73c0-.33.08-.58.24-.75.16-.17.38-.26.64-.26s.47.08.62.24c.15.16.22.39.22.68v1.83h.67v-1.9c0-.45-.11-.8-.34-1.05-.23-.24-.53-.37-.91-.37Z"></path>
  <path style="fill:url(#uuid-47985b04-8b2e-4cae-ad83-8dc872c37cb6);" d="m39.7,35.66c-.15-.06-.35-.12-.59-.17-.19-.04-.33-.08-.43-.12-.1-.04-.18-.08-.25-.15-.07-.06-.1-.15-.1-.25,0-.14.05-.25.14-.33.09-.08.22-.12.39-.12.2,0,.37.05.49.16.12.11.2.25.23.43h.64c-.05-.33-.19-.59-.42-.78-.23-.2-.54-.29-.92-.29s-.65.09-.86.26-.31.4-.31.67c0,.21.05.38.16.51.1.12.23.21.38.27s.34.11.58.17c.19.04.33.08.44.12.11.04.2.09.27.16.07.07.11.16.11.27,0,.13-.05.24-.14.32-.09.08-.22.13-.38.13-.22,0-.41-.05-.54-.17-.14-.11-.22-.25-.24-.43h-.66c.05.34.2.6.45.79.25.19.58.28.98.28.35,0,.63-.08.84-.25.21-.17.31-.39.31-.66,0-.22-.05-.4-.16-.52-.11-.13-.24-.22-.39-.28Z"></path>
  <path style="fill:url(#uuid-e0707fa1-80ba-46da-a927-2c9dae88f6e4);" d="m42.01,32.73c-.13,0-.23.04-.31.11-.08.08-.12.17-.12.28s.04.21.12.28c.08.07.18.11.31.11s.24-.04.32-.11c.08-.07.12-.16.12-.28s-.04-.21-.12-.28c-.08-.07-.19-.11-.32-.11Z"></path>
  <rect style="fill:url(#uuid-b5fc40e3-8c70-4de5-8ef1-3e1acb9cb622);" height="3.26" width=".67" y="34.08" x="41.67"></rect>
  <path style="fill:url(#uuid-1928c690-8975-4b7c-a3ff-59ed2c764472);" d="m44.86,36.64c-.07-.07-.1-.2-.1-.38v-1.61h.79v-.57h-.79v-.81h-.68v.81h-.47v.57h.47v1.6c0,.39.09.67.27.84s.44.25.79.25h.41v-.59h-.33c-.17,0-.29-.04-.36-.11Z"></path>
  <path style="fill:url(#uuid-9f5a54d1-c339-49f5-93c9-283b351dbcc6);" d="m47.26,32.73c-.13,0-.23.04-.31.11-.08.08-.12.17-.12.28s.04.21.12.28c.08.07.18.11.31.11s.24-.04.32-.11c.08-.07.12-.16.12-.28s-.04-.21-.12-.28c-.08-.07-.19-.11-.32-.11Z"></path>
  <rect style="fill:url(#uuid-1b721bb4-ac2c-4247-8cb9-bd26c402582e);" height="3.26" width=".67" y="34.08" x="46.93"></rect>
  <path style="fill:url(#uuid-d07605e2-00d7-40ff-9212-dc07f2c7a7c0);" d="m51.5,34.24c-.25-.13-.54-.2-.85-.2s-.6.07-.85.2c-.25.13-.45.33-.59.58-.14.25-.22.55-.22.89s.07.64.22.89c.14.25.34.45.59.58.25.13.53.2.85.2s.6-.07.85-.2c.25-.13.45-.33.59-.58.14-.25.21-.55.21-.89s-.07-.63-.21-.89c-.14-.25-.34-.45-.59-.58Zm-.02,2.07c-.09.16-.21.28-.35.36-.15.08-.31.12-.48.12s-.33-.04-.48-.12c-.15-.08-.26-.2-.35-.36s-.13-.36-.13-.6.04-.44.13-.6c.09-.16.21-.29.35-.36.15-.08.31-.12.48-.12s.33.04.48.12c.15.08.26.2.35.36.09.16.13.36.13.6s-.04.44-.13.6Z"></path>
  <path style="fill:url(#uuid-6721aecf-d974-4cce-9a94-693399107754);" d="m55.53,34.02c-.27,0-.5.07-.71.2-.21.13-.35.32-.44.57v-.72h-.67v3.26h.67v-1.73c0-.33.08-.58.24-.75.16-.17.38-.26.64-.26s.47.08.62.24c.15.16.22.39.22.68v1.83h.67v-1.9c0-.45-.11-.8-.34-1.05-.23-.24-.53-.37-.91-.37Z"></path>
  <polygon style="fill:url(#uuid-7c301a46-2159-4cd4-bea3-777a86d324fb);" points="61.78 36.64 60.84 34.08 60.12 34.08 61.36 37.34 62.18 37.34 63.42 34.08 62.7 34.08 61.78 36.64"></polygon>
  <path style="fill:url(#uuid-1b5579ca-390b-4ecd-82e8-077d4a349c22);" d="m66.95,34.23c-.24-.13-.52-.2-.84-.2s-.59.07-.84.2c-.24.13-.43.33-.57.58-.14.25-.21.55-.21.89s.07.64.21.89c.14.25.33.45.57.58.24.13.52.2.84.2.27,0,.52-.05.74-.15.22-.1.4-.24.54-.42.14-.18.23-.38.27-.61h-.72c-.04.19-.13.34-.29.46-.16.11-.35.17-.57.17-.26,0-.47-.08-.64-.24-.17-.16-.27-.41-.28-.75h2.51c.02-.08.02-.18.02-.29,0-.28-.06-.54-.19-.77-.13-.23-.31-.41-.55-.54Zm-1.79,1.3c.02-.32.11-.55.29-.72.18-.16.4-.24.66-.24.17,0,.32.03.46.1.14.07.25.18.33.32.08.14.12.32.11.54h-1.85Z"></path>
  <path style="fill:url(#uuid-42437e5c-a1ae-49c7-b818-82baf548a8e6);" d="m69.76,34.72v-.64h-.67v3.26h.67v-1.65c0-.33.09-.57.27-.71.18-.14.42-.22.71-.22h.2v-.73c-.27,0-.5.06-.71.19-.21.12-.36.29-.47.51Z"></path>
  <path style="fill:url(#uuid-0a9aee56-4995-4fb1-bc0d-4b923f28a905);" d="m74.09,35.66c-.15-.06-.35-.12-.59-.17-.19-.04-.33-.08-.43-.12-.1-.04-.18-.08-.25-.15-.07-.06-.1-.15-.1-.25,0-.14.05-.25.14-.33.09-.08.22-.12.39-.12.2,0,.37.05.49.16.12.11.2.25.23.43h.64c-.05-.33-.19-.59-.42-.78-.23-.2-.54-.29-.92-.29s-.65.09-.86.26c-.21.17-.31.4-.31.67,0,.21.05.38.16.51.1.12.23.21.38.27s.34.11.58.17c.19.04.33.08.44.12.11.04.2.09.27.16.07.07.11.16.11.27,0,.13-.05.24-.14.32-.09.08-.22.13-.38.13-.22,0-.41-.05-.54-.17-.14-.11-.22-.25-.24-.43h-.66c.05.34.2.6.45.79.25.19.58.28.98.28.35,0,.63-.08.84-.25.21-.17.31-.39.31-.66,0-.22-.05-.4-.16-.52-.11-.13-.24-.22-.39-.28Z"></path>
  <rect style="fill:url(#uuid-58e2ead4-41e8-4ab5-8041-38c57774b7f2);" height="4.38" width=".67" y="32.96" x="78.19"></rect>
  <path style="fill:url(#uuid-ec743e36-2429-49ba-8320-09b5d094de75);" d="m82.93,34.83c-.09-.24-.23-.43-.44-.58-.21-.15-.46-.22-.76-.22s-.54.07-.76.2c-.22.13-.4.33-.52.58-.13.25-.19.55-.19.89s.06.64.19.89c.13.25.3.45.52.58.22.13.48.2.76.2s.55-.07.76-.22c.21-.15.36-.34.44-.58v.76h.67v-3.26h-.67v.76Zm-.13,1.44c-.09.16-.21.29-.35.38-.15.09-.32.13-.51.13-.3,0-.54-.1-.72-.29-.18-.19-.27-.45-.27-.79s.09-.6.27-.79c.18-.19.42-.29.72-.29.19,0,.36.04.51.13.15.09.27.21.35.38.09.16.13.35.13.56s-.04.41-.13.57Z"></path>
  <path style="fill:url(#uuid-745e666a-28c4-4cdb-adb7-e2469565c400);" d="m91.37,34.02c-.26,0-.5.07-.71.21-.21.14-.36.33-.46.57-.09-.25-.24-.45-.43-.58-.2-.13-.43-.2-.71-.2s-.49.06-.68.19c-.19.13-.33.31-.41.54v-.68h-.67v3.26h.67v-1.73c0-.32.08-.57.23-.74.16-.17.37-.25.63-.25.25,0,.44.08.59.23.14.16.21.38.21.66v1.83h.67v-1.73c0-.32.08-.57.23-.74.16-.17.37-.25.63-.25.25,0,.44.08.59.23.14.16.21.38.21.66v1.83h.67v-1.9c0-.45-.12-.8-.35-1.05-.23-.24-.54-.37-.93-.37Z"></path>
  <path style="fill:url(#uuid-5d1c0ed2-6f89-4c01-aa7b-7df4fb0693ad);" d="m96.51,34.24c-.25-.13-.54-.2-.85-.2s-.6.07-.85.2c-.25.13-.45.33-.59.58-.14.25-.22.55-.22.89s.07.64.22.89c.14.25.34.45.59.58.25.13.53.2.85.2s.6-.07.85-.2c.25-.13.45-.33.59-.58.14-.25.21-.55.21-.89s-.07-.63-.21-.89c-.14-.25-.34-.45-.59-.58Zm-.02,2.07c-.09.16-.21.28-.35.36-.15.08-.31.12-.48.12s-.33-.04-.48-.12c-.15-.08-.26-.2-.35-.36s-.13-.36-.13-.6.04-.44.13-.6c.09-.16.21-.29.35-.36.15-.08.31-.12.48-.12s.33.04.48.12c.15.08.26.2.35.36.09.16.13.36.13.6s-.04.44-.13.6Z"></path>
  <path style="fill:url(#uuid-ebff19ff-146a-4c09-a293-7e4f47b3292f);" d="m101.34,34.24c-.22-.13-.48-.2-.76-.2s-.55.07-.76.22c-.21.15-.35.34-.44.58v-1.87h-.67v4.38h.67v-.76c.08.24.23.43.44.58.21.15.46.22.76.22s.54-.07.76-.2c.22-.13.4-.33.52-.58.13-.25.19-.55.19-.89s-.06-.63-.19-.89c-.13-.25-.3-.45-.52-.58Zm-.25,2.26c-.18.19-.42.29-.72.29-.19,0-.36-.04-.51-.13-.15-.09-.27-.21-.35-.38-.09-.16-.13-.35-.13-.57s.04-.4.13-.56c.09-.16.2-.29.35-.38.15-.09.32-.13.51-.13.3,0,.54.1.72.29.18.19.27.46.27.79s-.09.6-.27.79Z"></path>
  <rect style="fill:url(#uuid-6297304a-0983-4c9d-8451-5fcc1af9ff1e);" height="3.26" width=".67" y="34.08" x="103.45"></rect>
  <path style="fill:url(#uuid-943ff655-23e1-452d-a13d-0876298dba6e);" d="m103.79,32.73c-.13,0-.23.04-.31.11-.08.08-.12.17-.12.28s.04.21.12.28c.08.07.18.11.31.11s.24-.04.32-.11c.08-.07.12-.16.12-.28s-.04-.21-.12-.28c-.08-.07-.19-.11-.32-.11Z"></path>
  <rect style="fill:url(#uuid-72e1cb3f-d35f-4ec5-bfab-7269f7c2219a);" height="4.38" width=".67" y="32.96" x="105.69"></rect>
  <rect style="fill:url(#uuid-1ea181ed-3db9-430c-ac82-c1f218cf073b);" height="3.26" width=".67" y="34.08" x="107.92"></rect>
  <path style="fill:url(#uuid-cf85d1f4-6fbd-45e8-a5c4-296db96a69cf);" d="m108.26,32.73c-.13,0-.23.04-.31.11-.08.08-.12.17-.12.28s.04.21.12.28c.08.07.18.11.31.11s.24-.04.32-.11c.08-.07.12-.16.12-.28s-.04-.21-.12-.28c-.08-.07-.19-.11-.32-.11Z"></path>
  <path style="fill:url(#uuid-568a9570-792b-40c5-ac83-ddf0714e6523);" d="m111.11,36.64c-.07-.07-.1-.2-.1-.38v-1.61h.79v-.57h-.79v-.81h-.68v.81h-.47v.57h.47v1.6c0,.39.09.67.27.84.18.17.44.25.79.25h.41v-.59h-.33c-.17,0-.29-.04-.36-.11Z"></path>
  <polygon style="fill:url(#uuid-3a5dbc1e-6408-49b7-b399-caff0dbf1cb5);" points="115.55 32.63 114.24 33.35 114.24 33.82 115.55 33.15 115.55 32.63"></polygon>
  <path style="fill:url(#uuid-283034b2-d157-425d-8992-c40689f974df);" d="m115.46,34.23c-.24-.13-.52-.2-.84-.2s-.59.07-.84.2c-.24.13-.43.33-.57.58-.14.25-.21.55-.21.89s.07.64.21.89c.14.25.33.45.57.58.24.13.52.2.84.2.27,0,.52-.05.74-.15.22-.1.4-.24.54-.42.14-.18.23-.38.27-.61h-.72c-.04.19-.13.34-.29.46-.16.11-.35.17-.57.17-.26,0-.47-.08-.64-.24-.17-.16-.27-.41-.28-.75h2.51c.02-.08.02-.18.02-.29,0-.28-.06-.54-.19-.77-.13-.23-.31-.41-.55-.54Zm-1.79,1.3c.02-.32.11-.55.29-.72.18-.16.4-.24.66-.24.17,0,.32.03.46.1.14.07.25.18.33.32.08.14.12.32.11.54h-1.85Z"></path>
  <polygon style="fill:url(#uuid-be5f71e1-ecf3-40f7-99a2-5a2277c647d4);" points="122.1 32.63 120.79 33.35 120.79 33.82 122.1 33.15 122.1 32.63"></polygon>
  <path style="fill:url(#uuid-8bf03c1e-f815-409c-823e-a78186a0c1a6);" d="m122.02,34.23c-.24-.13-.52-.2-.84-.2s-.59.07-.84.2c-.24.13-.43.33-.57.58-.14.25-.21.55-.21.89s.07.64.21.89c.14.25.33.45.57.58.24.13.52.2.84.2.27,0,.52-.05.74-.15.22-.1.4-.24.54-.42.14-.18.23-.38.27-.61h-.72c-.04.19-.13.34-.29.46-.16.11-.35.17-.57.17-.26,0-.47-.08-.64-.24-.17-.16-.27-.41-.28-.75h2.51c.02-.08.02-.18.02-.29,0-.28-.06-.54-.19-.77-.13-.23-.31-.41-.55-.54Zm-1.79,1.3c.02-.32.11-.55.29-.72.18-.16.4-.24.66-.24.17,0,.32.03.46.1.14.07.25.18.33.32.08.14.12.32.11.54h-1.85Z"></path>
  <rect style="fill:url(#uuid-989f26d3-7bd7-4679-87f4-31ff34d5675f);" height="4.38" width=".67" y="32.96" x="124.15"></rect>
  <path style="fill:url(#uuid-1dabf329-0107-49ce-af19-65d00ad1f461);" d="m128.68,34.23c-.24-.13-.52-.2-.84-.2s-.59.07-.84.2c-.24.13-.43.33-.57.58-.14.25-.21.55-.21.89s.07.64.21.89c.14.25.33.45.57.58.24.13.52.2.84.2.27,0,.52-.05.74-.15.22-.1.4-.24.54-.42.14-.18.23-.38.27-.61h-.72c-.04.19-.13.34-.29.46-.16.11-.35.17-.57.17-.26,0-.47-.08-.64-.24s-.27-.41-.28-.75h2.51c.02-.08.02-.18.02-.29,0-.28-.06-.54-.19-.77-.13-.23-.31-.41-.55-.54Zm-1.79,1.3c.02-.32.11-.55.29-.72.18-.16.4-.24.66-.24.17,0,.32.03.46.1.14.07.25.18.33.32s.12.32.11.54h-1.85Z"></path>
  <path style="fill:url(#uuid-b7f2e875-12c1-43e3-baa3-5615c33a48df);" d="m132.25,34.62c.23,0,.42.06.57.17.15.12.25.28.29.48h.72c-.07-.38-.24-.69-.51-.91-.28-.22-.62-.33-1.05-.33-.32,0-.59.07-.84.2-.24.13-.43.33-.57.58-.14.25-.21.55-.21.89s.07.64.21.89c.14.25.33.45.57.58.24.13.52.2.84.2.42,0,.77-.11,1.05-.34.28-.22.45-.53.51-.91h-.72c-.04.21-.14.37-.29.48-.15.12-.34.18-.57.18-.26,0-.48-.09-.65-.28-.17-.19-.26-.46-.26-.81s.09-.62.26-.81c.17-.18.39-.28.65-.28Z"></path>
  <path style="fill:url(#uuid-2fd93768-99a1-4c5b-9e69-85a1ccbee329);" d="m136.17,36.64c-.07-.07-.1-.2-.1-.38v-1.61h.79v-.57h-.79v-.81h-.68v.81h-.47v.57h.47v1.6c0,.39.09.67.27.84s.44.25.79.25h.41v-.59h-.33c-.17,0-.29-.04-.36-.11Z"></path>
  <path style="fill:url(#uuid-671a99a1-2e47-4f67-83e9-d620f6991c28);" d="m138.91,34.72v-.64h-.67v3.26h.67v-1.65c0-.33.09-.57.27-.71.18-.14.42-.22.71-.22h.2v-.73c-.27,0-.5.06-.71.19-.21.12-.36.29-.47.51Z"></path>
  <rect style="fill:url(#uuid-e1a196c7-bab2-4b04-a58c-c3238cc3bef9);" height="3.26" width=".67" y="34.08" x="141.34"></rect>
  <path style="fill:url(#uuid-8b0361ff-9f24-4c9e-9b93-be003a3cac67);" d="m141.68,32.73c-.13,0-.23.04-.31.11-.08.08-.12.17-.12.28s.04.21.12.28c.08.07.18.11.31.11s.24-.04.32-.11c.08-.07.12-.16.12-.28s-.04-.21-.12-.28c-.08-.07-.19-.11-.32-.11Z"></path>
  <path style="fill:url(#uuid-1739f95f-0c48-4b1c-9b94-c714b17fbbea);" d="m146.09,34.76c-.1-.22-.25-.4-.44-.53-.2-.13-.43-.19-.71-.19s-.54.07-.77.21c-.23.14-.42.34-.55.59-.13.25-.2.54-.2.88s.07.62.2.87c.13.25.31.45.55.58.23.14.49.21.77.21s.51-.07.7-.2c.2-.13.35-.32.45-.56v2.27h.67v-4.81h-.67v.68Zm-.14,1.53c-.09.16-.21.29-.36.37-.15.08-.32.13-.5.13-.29,0-.53-.09-.71-.28-.18-.18-.28-.45-.28-.79s.09-.6.28-.8c.19-.19.42-.29.71-.29.18,0,.35.04.5.13.15.08.27.21.36.37.09.16.14.35.14.57s-.05.42-.14.58Z"></path>
  <path style="fill:url(#uuid-72faeabf-99d0-4205-95af-28487fc454ac);" d="m150.64,35.8c0,.33-.08.58-.24.76-.16.17-.38.26-.64.26s-.47-.08-.62-.24c-.15-.16-.22-.39-.22-.68v-1.82h-.67v1.89c0,.45.11.8.34,1.05.23.24.53.37.91.37.27,0,.51-.07.72-.2.21-.13.35-.32.43-.56v.71h.68v-3.26h-.68v1.73Z"></path>
  <path style="fill:url(#uuid-6044ccb1-18b5-4f4c-a2c5-3b55393ea258);" d="m155.9,35.55c0-.28-.06-.54-.19-.77-.13-.23-.31-.41-.55-.54-.24-.13-.52-.2-.84-.2s-.59.07-.84.2c-.24.13-.43.33-.57.58-.14.25-.21.55-.21.89s.07.64.21.89c.14.25.33.45.57.58.24.13.52.2.84.2.27,0,.52-.05.74-.15.22-.1.4-.24.54-.42.14-.18.23-.38.27-.61h-.72c-.04.19-.13.34-.29.46-.16.11-.35.17-.57.17-.26,0-.47-.08-.64-.24-.17-.16-.27-.41-.28-.75h2.51c.02-.08.02-.18.02-.29Zm-2.53-.02c.02-.32.11-.55.29-.72.18-.16.4-.24.66-.24.17,0,.32.03.46.1.14.07.25.18.33.32.08.14.12.32.11.54h-1.85Z"></path>
  <g>
    <path style="fill:url(#uuid-9a5ad5be-f211-455b-9db3-4ee3f9719c7e);" d="m70.75,5.77c1.37.46,2.88-.38,3.38-1.86.5-1.49-.21-3.06-1.58-3.52-1.37-.46-2.88.38-3.38,1.86-.5,1.49.21,3.06,1.58,3.52Z"></path>
    <path style="fill:url(#uuid-414b287a-6f9a-41c6-a849-4a1a7758683a);" d="m124.01,19.44c-.71-.42-1.73-.65-2.81-.79-.52-.07-1.13-.15-1.76-.29-3.92,3.59-7.45,4.27-9.58,4.27-1.32,0-2.1-.26-2.1-.26,0,0,2.63-1.76,4.51-4.94,2.09-3.55.92-8.75-3.35-9.71-.59-.13-1.16-.2-1.72-.2-3.59,0-6.32,2.64-7.46,5.94-1.31,3.81.75,7.94.75,7.94-2.48,1.06-4.46,1.35-5.87,1.35-1.59,0-2.44-.36-2.44-.36,0,0,2.86-1.6,4.69-4.66,2.63-4.38.73-8.82-2.77-9.89-.56-.17-1.17-.26-1.8-.26-3.04,0-6.52,2-7.67,5.64-1.53,4.87.62,8.11.62,8.11l-2.08.61c-.45.13-.84.19-1.16.19-2.23,0-1.64-2.75-1.64-2.75,0,0,1.26-13.51,1.49-16.01.26-2.91-2.47-3.3-3.94-3.3-.54,0-.91.05-.91.05l-1.88,22.14c-.37.12-.68.18-.95.18-1.96,0-1.57-2.86-1.57-2.86,0,0,.37-4.69.71-9,.24-3.04-2.02-3.49-3.37-3.49-.57,0-.97.08-.97.08,0,0-.77,11.72-1.08,12.98-.37,1.53-3.14,1.74-3.14,1.74h0s1.27-1.3,1.54-5.15c.27-3.8-1.73-9.1-7.04-9.1-3.74,0-5.27,2.83-5.27,2.83,0,0,.48-4.48.46-7.95C54.45.33,52.4,0,51.18,0c-.52,0-.88.06-.88.06l-.66,8.84c0,2.98-3.1,3.04-3.1,3.04,0,0-1.22-4.28-7.52-4.28-5.25,0-7.63,5.09-7.63,5.09-2.22,4.27-.82,9.08-.82,9.08-.76.5-2.4.81-2.4.81,0,0,.24-6.35.24-13.32S27.7.42,24.21.06c-.04,0-.08,0-.11,0-3.87,0-9.04,20.42-9.39,20.42-.18,0-2.74-15.72-4.53-18.36C8.94.29,6.45,0,5.03,0c-.64,0-1.06.06-1.06.06C2.74,3.64.02,21.32.25,24.01c.23,2.69,2.38,2.69,2.38,2.69l2.06.02S7.01,6.76,7.24,6.75h0c.23,0,2.57,11.12,3.59,16.06.73,3.54,3.01,4,4.15,4,.4,0,.66-.06.66-.06,2.98-3.27,6.78-19.26,7.94-19.92,0,0,0,0,0,0,.25,0-.13,9.8-.13,13.46s-.87,6.52,3.08,6.52,6.4-1.53,6.4-1.53c0,0,1.54,1.53,4.97,1.53,9.55,0,9.47-10.88,9.47-10.88.86-.15,1.78-.53,1.78-.53,0,0-.2,2.44-.2,3.34,0,6.52,5.31,8.13,7.85,8.13s4.37-1.18,4.37-1.18c1.19.37,2.29.51,3.27.51,2.73,0,4.51-1.06,4.51-1.06,0,0,1.18,1.54,4.29,1.54s4.33-.76,4.33-.76c0,0,.92.42,3.45.42,3.89,0,7.01-2.32,7.01-2.32,0,0,2.7,2.86,7.79,2.86,3.83,0,7.76-2.12,7.76-2.12,0,0,2.07,2.12,7.03,2.12.5,0,1.02-.02,1.57-.07,1.86-.16,3.49-.64,4.91-1.29,0,0,1.66-.67,3.6-2.31,1.65-1.41,2.74-2.88,3.29-3.75Zm-81.55-1.98c-.58,5.79-4.31,5.34-4.31,5.34,0,0-4.26.3-3.76-5.45.52-6,4.29-5.56,4.29-5.56,0,0,4.38-.37,3.78,5.67Zm18.84.05c-.58,5.79-4.31,5.34-4.31,5.34,0,0-4.26.3-3.76-5.45.52-6,4.29-5.56,4.29-5.56,0,0,4.38-.37,3.78,5.67Zm27.37,2.09s-1.24-2.24-.49-4.73c.78-2.57,2.53-3.92,4.61-2.96,2.08.96,1.13,4.98-4.12,7.68Zm15.21,0s-1.24-2.24-.49-4.73c.78-2.57,2.53-3.92,4.61-2.96,2.08.96,1.13,4.98-4.12,7.68Z"></path>
    <path style="fill:url(#uuid-2340f136-3176-4a38-9776-40091db4e07d);" d="m144.22,26.98c7,.22,10.48-2.75,10.48-2.75,0,0,1.56-1.08.71-2.44-1.04-1.66-2.65-.74-2.65-.74,0,0-1.13.73-5.42,1.57-4.28.84-6.69-.58-6.69-.58,0,0,7.1-3.21,7.22-8.49.11-4.62-3.64-5.71-4.73-6.09-3.03-1.07-7.41,1.65-8.69,4.49-.46,1.03-.77,2.06-.95,3.07-1.33-.8-3.56-1.99-5.59-2.44-.27-.06-.52-.09-.76-.1-2.05-.07-2.96,1.47-3.34,2.29.2.04.41.08.64.11,1.98.28,4.37.96,5.61,2.64.24.02.54.1.91.28.74.37,1.81.99,2.64,1.48,1.01,4.25,4.79,7.49,10.6,7.67Zm-6.44-12.1c.78-2.57,2.53-3.92,4.61-2.96,2.08.96,1.13,4.98-4.12,7.68,0,0-1.24-2.24-.49-4.73Z"></path>
    <g>
      <path style="fill:url(#uuid-ece7d7cf-e5ec-4262-aeb7-380852cb1f5e);" d="m128.09,9.31c-.04-.29-.14-.53-.26-.71.05.13.11.26.15.39.04.1.07.21.11.32Z"></path>
      <path style="fill:url(#uuid-394c3013-315b-4b4b-b5cb-f13687960104);" d="m127.19,8.04l-1.29,3.21c.21.02.4.05.59.07.49,0,1.15-.12,1.4-.72.21-.52.26-.95.21-1.3-.03-.11-.07-.21-.11-.32-.05-.13-.1-.26-.15-.39-.27-.4-.64-.55-.64-.55Z"></path>
      <g>
        <polygon style="fill:url(#uuid-1968dbc7-e9e7-440d-ad56-c7a56866d7d3);" points="127.19 8.04 125.89 11.25 127.19 8.04 127.19 8.04"></polygon>
        <g>
          <polygon style="fill:url(#uuid-29f3a6ea-1134-480f-a1e4-6a118da884e3);" points="127.19 8.04 125.89 11.25 127.19 8.03 127.19 8.04 127.19 8.04"></polygon>
          <path style="fill:url(#uuid-52723125-0807-483a-b318-fec283e8b166);" d="m123.93,15.39c-3.11-.33-2.95-1.67-2.95-1.67,0,0-.35-2.54,3.64-2.54.46,0,.89.03,1.28.07.21.02.4.05.59.07.45.05,1.15-.12,1.4-.72.21-.52.26-.95.21-1.3-.03-.11-.07-.21-.11-.32-.05-.13-.1-.26-.15-.39-.33-.48-.62-.56-.63-.57-.85-.31-1.81-.46-2.77-.47-2.87-.03-7.27,1.46-7.62,5.74-.21,2.58,1.01,3.86,2.5,4.55h0s.24.05.24.05c.6.14,1.2.22,1.71.29,1.19.16,2.1.4,2.76.73,1.58.39,2.72,1.11,2.31,2.6-.53,1.95-3.47,1.7-3.47,1.7,0,0-.43,0-.95-.14-.86.84-1.83,1.77-3.35,2.45.14.08.36.22.53.31,3.98,2.19,10.55,1.04,11.36-4.06.75-4.74-3.42-6.04-6.54-6.37Z"></path>
        </g>
      </g>
    </g>
  </g>
</svg>