<?xml version="1.0" encoding="utf-8"?>
<!-- Generator: Adobe Illustrator 26.0.1, SVG Export Plug-In . SVG Version: 6.00 Build 0)  -->
<svg version="1.1" id="uuid-ab14a5b7-22d6-45f4-bb7c-d370acfbe1f1"
	 xmlns="http://www.w3.org/2000/svg" xmlns:xlink="http://www.w3.org/1999/xlink" x="0px" y="0px" viewBox="0 0 155.4 27"
	 style="enable-background:new 0 0 155.4 27;" xml:space="preserve">
<style type="text/css">
	.st0{fill:url(#SVGID_1_);}
	.st1{fill:url(#SVGID_00000161604657888387859370000000080537689701242016_);}
	.st2{fill:url(#SVGID_00000060710404029073414440000012174347489855815065_);}
	.st3{fill:url(#SVGID_00000030462418351172508370000011467228805986854529_);}
	.st4{fill:url(#SVGID_00000067944852447299960700000013574867850309083814_);}
	.st5{fill:url(#SVGID_00000136378096115059914960000003231164823007972995_);}
	.st6{fill:url(#SVGID_00000075128443509126722710000015994228990897490609_);}
	.st7{fill:url(#SVGID_00000119082123086343975190000006662313687531114130_);}
</style>
<g>
	
		<linearGradient id="SVGID_1_" gradientUnits="userSpaceOnUse" x1="-5.5056" y1="24.1486" x2="151.9044" y2="48.8986" gradientTransform="matrix(1 0 0 -1 0 39.3229)">
		<stop  offset="0" style="stop-color:#009CFF"/>
		<stop  offset="0.26" style="stop-color:#4EC6FF"/>
		<stop  offset="0.58" style="stop-color:#00E8F4"/>
		<stop  offset="1" style="stop-color:#3ACF8E"/>
	</linearGradient>
	<path class="st0" d="M70.5,5.8c1.4,0.5,2.9-0.4,3.4-1.9c0.5-1.5-0.2-3.1-1.6-3.5s-2.9,0.4-3.4,1.9C68.4,3.7,69.1,5.3,70.5,5.8z"/>
	
		<linearGradient id="SVGID_00000126287081974433954290000004715309132172000144_" gradientUnits="userSpaceOnUse" x1="-4.2355" y1="16.1081" x2="153.1645" y2="40.8581" gradientTransform="matrix(1 0 0 -1 0 39.3229)">
		<stop  offset="0" style="stop-color:#009CFF"/>
		<stop  offset="0.26" style="stop-color:#4EC6FF"/>
		<stop  offset="0.58" style="stop-color:#00E8F4"/>
		<stop  offset="1" style="stop-color:#3ACF8E"/>
	</linearGradient>
	<path style="fill:url(#SVGID_00000126287081974433954290000004715309132172000144_);" d="M123.8,19.4c-0.7-0.4-1.7-0.6-2.8-0.8
		c-0.5-0.1-1.1-0.1-1.8-0.3c-3.9,3.6-7.4,4.3-9.6,4.3c-1.3,0-2.1-0.3-2.1-0.3s2.6-1.8,4.5-4.9c2.1-3.6,0.9-8.8-3.3-9.7
		c-0.6-0.1-1.2-0.2-1.7-0.2c-3.6,0-6.3,2.6-7.5,5.9c-1.3,3.8,0.8,7.9,0.8,7.9c-2.5,1.1-4.5,1.4-5.9,1.4c-1.6,0-2.4-0.4-2.4-0.4
		s2.9-1.6,4.7-4.7c2.6-4.4,0.7-8.8-2.8-9.9c-0.6-0.2-1.2-0.3-1.8-0.3c-3,0-6.5,2-7.7,5.6c-1.5,4.9,0.6,8.1,0.6,8.1l-2.1,0.6
		c-0.4,0.1-0.8,0.2-1.2,0.2c-2.2,0-1.6-2.8-1.6-2.8s1.3-13.5,1.5-16c0.3-2.9-2.5-3.3-3.9-3.3c-0.5,0-0.9,0-0.9,0l-1.9,22.1
		c-0.4,0.1-0.7,0.2-0.9,0.2c-2,0-1.6-2.9-1.6-2.9s0.4-4.7,0.7-9c0.2-3-2-3.5-3.4-3.5c-0.6,0-1,0.1-1,0.1s-0.8,11.7-1.1,13
		c-0.4,1.5-3.1,1.7-3.1,1.7l0,0c0,0,1.3-1.3,1.5-5.1c0.3-3.8-1.7-9.1-7-9.1c-3.7,0-5.3,2.8-5.3,2.8s0.5-4.5,0.5-7.9
		c0-2.2-2-2.5-3.3-2.5c-0.5,0-0.9,0.1-0.9,0.1l-0.7,8.8c0,3-3.1,3-3.1,3s-1.2-4.3-7.5-4.3c-5.2,0-7.6,5.1-7.6,5.1
		c-2.2,4.3-0.8,9.1-0.8,9.1c-0.8,0.5-2.4,0.8-2.4,0.8s0.2-6.4,0.2-13.3S27.5,0.4,24,0.1c0,0-0.1,0-0.1,0c-3.9,0-9,20.4-9.4,20.4
		c-0.2,0-2.7-15.7-4.5-18.4C8.7,0.3,6.2,0,4.8,0C4.2,0,3.7,0.1,3.7,0.1C2.5,3.6-0.2,21.3,0,24s2.4,2.7,2.4,2.7l2.1,0
		c0,0,2.3-20,2.5-20l0,0c0.2,0,2.6,11.1,3.6,16.1c0.7,3.5,3,4,4.1,4c0.4,0,0.7-0.1,0.7-0.1c3-3.3,6.8-19.3,7.9-19.9l0,0
		c0.2,0-0.1,9.8-0.1,13.5s-0.9,6.5,3.1,6.5s6.4-1.5,6.4-1.5s1.5,1.5,5,1.5c9.5,0,9.5-10.9,9.5-10.9c0.9-0.1,1.8-0.5,1.8-0.5
		s-0.2,2.4-0.2,3.3c0,6.5,5.3,8.1,7.8,8.1s4.4-1.2,4.4-1.2c1.2,0.4,2.3,0.5,3.3,0.5c2.7,0,4.5-1.1,4.5-1.1s1.2,1.5,4.3,1.5
		s4.3-0.8,4.3-0.8s0.9,0.4,3.4,0.4c3.9,0,7-2.3,7-2.3s2.7,2.9,7.8,2.9c3.8,0,7.8-2.1,7.8-2.1s2.1,2.1,7,2.1c0.5,0,1,0,1.6-0.1
		c1.9-0.2,3.5-0.6,4.9-1.3c0,0,1.7-0.7,3.6-2.3C122.1,21.8,123.2,20.3,123.8,19.4L123.8,19.4z M42.2,17.5c-0.6,5.8-4.3,5.3-4.3,5.3
		s-4.3,0.3-3.8-5.4c0.5-6,4.3-5.6,4.3-5.6S42.8,11.4,42.2,17.5z M61.1,17.5c-0.6,5.8-4.3,5.3-4.3,5.3s-4.3,0.3-3.8-5.4
		c0.5-6,4.3-5.6,4.3-5.6S61.7,11.5,61.1,17.5z M88.4,19.6c0,0-1.2-2.2-0.5-4.7c0.8-2.6,2.5-3.9,4.6-3S93.7,16.9,88.4,19.6L88.4,19.6
		z M103.6,19.6c0,0-1.2-2.2-0.5-4.7c0.8-2.6,2.5-3.9,4.6-3S108.9,16.9,103.6,19.6L103.6,19.6z"/>
	
		<linearGradient id="SVGID_00000169532973577424368380000017107406424732801978_" gradientUnits="userSpaceOnUse" x1="-1.6086" y1="-0.6422" x2="155.8014" y2="24.1178" gradientTransform="matrix(1 0 0 -1 0 39.3229)">
		<stop  offset="0" style="stop-color:#009CFF"/>
		<stop  offset="0.26" style="stop-color:#4EC6FF"/>
		<stop  offset="0.58" style="stop-color:#00E8F4"/>
		<stop  offset="1" style="stop-color:#3ACF8E"/>
	</linearGradient>
	<path style="fill:url(#SVGID_00000169532973577424368380000017107406424732801978_);" d="M144,27c7,0.2,10.5-2.8,10.5-2.8
		s1.6-1.1,0.7-2.4c-1-1.7-2.6-0.7-2.6-0.7s-1.1,0.7-5.4,1.6c-4.3,0.8-6.7-0.6-6.7-0.6s7.1-3.2,7.2-8.5c0.1-4.6-3.6-5.7-4.7-6.1
		c-3-1.1-7.4,1.6-8.7,4.5c-0.5,1-0.8,2.1-0.9,3.1c-1.3-0.8-3.6-2-5.6-2.4c-0.3-0.1-0.5-0.1-0.8-0.1c-2.1-0.1-3,1.5-3.3,2.3
		c0.2,0,0.4,0.1,0.6,0.1c2,0.3,4.4,1,5.6,2.6c0.2,0,0.5,0.1,0.9,0.3c0.7,0.4,1.8,1,2.6,1.5C134.4,23.5,138.2,26.8,144,27L144,27z
		 M137.5,14.9c0.8-2.6,2.5-3.9,4.6-3s1.1,5-4.1,7.7C138,19.6,136.8,17.4,137.5,14.9L137.5,14.9z"/>
	<g>
		
			<linearGradient id="SVGID_00000094584201306742775830000001830195428307328899_" gradientUnits="userSpaceOnUse" x1="-3.2453" y1="9.7669" x2="154.1646" y2="34.5269" gradientTransform="matrix(1 0 0 -1 0 39.3229)">
			<stop  offset="0" style="stop-color:#009CFF"/>
			<stop  offset="0.26" style="stop-color:#4EC6FF"/>
			<stop  offset="0.58" style="stop-color:#00E8F4"/>
			<stop  offset="1" style="stop-color:#3ACF8E"/>
		</linearGradient>
		<path style="fill:url(#SVGID_00000094584201306742775830000001830195428307328899_);" d="M127.9,9.3c0-0.3-0.1-0.5-0.3-0.7
			c0.1,0.1,0.1,0.3,0.2,0.4C127.8,9.1,127.8,9.2,127.9,9.3z"/>
		
			<linearGradient id="SVGID_00000005947897284212748080000017268660766264068737_" gradientUnits="userSpaceOnUse" x1="-3.1567" y1="9.2154" x2="154.2533" y2="33.9754" gradientTransform="matrix(1 0 0 -1 0 39.3229)">
			<stop  offset="0" style="stop-color:#009CFF"/>
			<stop  offset="0.26" style="stop-color:#4EC6FF"/>
			<stop  offset="0.58" style="stop-color:#00E8F4"/>
			<stop  offset="1" style="stop-color:#3ACF8E"/>
		</linearGradient>
		<path style="fill:url(#SVGID_00000005947897284212748080000017268660766264068737_);" d="M127,8l-1.3,3.2c0.2,0,0.4,0.1,0.6,0.1
			c0.5,0,1.2-0.1,1.4-0.7c0.2-0.5,0.3-0.9,0.2-1.3c0-0.1-0.1-0.2-0.1-0.3c-0.1-0.1-0.1-0.3-0.2-0.4C127.3,8.2,127,8,127,8L127,8z"/>
		<g>
			
				<linearGradient id="SVGID_00000030456844199862151560000012121332425464633488_" gradientUnits="userSpaceOnUse" x1="-3.1661" y1="9.3115" x2="154.2339" y2="34.0715" gradientTransform="matrix(1 0 0 -1 0 39.3229)">
				<stop  offset="0" style="stop-color:#009CFF"/>
				<stop  offset="0.26" style="stop-color:#4EC6FF"/>
				<stop  offset="0.58" style="stop-color:#00E8F4"/>
				<stop  offset="1" style="stop-color:#3ACF8E"/>
			</linearGradient>
			<polygon style="fill:url(#SVGID_00000030456844199862151560000012121332425464633488_);" points="127,8 125.7,11.2 127,8 			"/>
			<g>
				
					<linearGradient id="SVGID_00000006670127074574669170000006024985726973656478_" gradientUnits="userSpaceOnUse" x1="-3.1768" y1="9.3161" x2="154.2332" y2="34.0761" gradientTransform="matrix(1 0 0 -1 0 39.3229)">
					<stop  offset="0" style="stop-color:#009CFF"/>
					<stop  offset="0.26" style="stop-color:#4EC6FF"/>
					<stop  offset="0.58" style="stop-color:#00E8F4"/>
					<stop  offset="1" style="stop-color:#3ACF8E"/>
				</linearGradient>
				<polygon style="fill:url(#SVGID_00000006670127074574669170000006024985726973656478_);" points="127,8 125.7,11.2 127,8 127,8 
									"/>
				
					<linearGradient id="SVGID_00000147933381552752645140000007801343151633127082_" gradientUnits="userSpaceOnUse" x1="-2.0666" y1="2.3249" x2="155.3334" y2="27.0849" gradientTransform="matrix(1 0 0 -1 0 39.3229)">
					<stop  offset="0" style="stop-color:#009CFF"/>
					<stop  offset="0.26" style="stop-color:#4EC6FF"/>
					<stop  offset="0.58" style="stop-color:#00E8F4"/>
					<stop  offset="1" style="stop-color:#3ACF8E"/>
				</linearGradient>
				<path style="fill:url(#SVGID_00000147933381552752645140000007801343151633127082_);" d="M123.7,15.4c-3.1-0.3-2.9-1.7-2.9-1.7
					s-0.3-2.5,3.6-2.5c0.5,0,0.9,0,1.3,0.1c0.2,0,0.4,0.1,0.6,0.1c0.4,0.1,1.2-0.1,1.4-0.7c0.2-0.5,0.3-0.9,0.2-1.3
					c0-0.1-0.1-0.2-0.1-0.3c-0.1-0.1-0.1-0.3-0.2-0.4C127.3,8.1,127,8,127,8c-0.8-0.3-1.8-0.5-2.8-0.5c-2.9,0-7.3,1.5-7.6,5.7
					c-0.2,2.6,1,3.9,2.5,4.6l0,0l0.2,0c0.6,0.1,1.2,0.2,1.7,0.3c1.2,0.2,2.1,0.4,2.8,0.7c1.6,0.4,2.7,1.1,2.3,2.6
					c-0.5,2-3.5,1.7-3.5,1.7s-0.4,0-0.9-0.1c-0.9,0.8-1.8,1.8-3.3,2.5c0.1,0.1,0.4,0.2,0.5,0.3c4,2.2,10.5,1,11.4-4.1
					C131,17,126.8,15.7,123.7,15.4L123.7,15.4z"/>
			</g>
		</g>
	</g>
</g>
</svg>
